<svg xmlns="http://www.w3.org/2000/svg" viewBox="0 0 1200 800">
<defs><linearGradient id="sky" x1="0" y1="0" x2="1" y2="1"><stop stop-color="#dff4ff"/><stop offset="1" stop-color="#78bde7"/></linearGradient><linearGradient id="road" x1="0" y1="0" x2="0" y2="1"><stop stop-color="#48647b"/><stop offset="1" stop-color="#1d3143"/></linearGradient><filter id="shadow"><feDropShadow dx="0" dy="20" stdDeviation="18" flood-opacity=".25"/></filter></defs>
<rect width="1200" height="800" fill="url(#sky)"/><circle cx="960" cy="130" r="70" fill="#fff" opacity=".8"/>
<g opacity=".35" fill="#436f8d"><rect x="70" y="260" width="95" height="260" rx="6"/><rect x="190" y="190" width="135" height="330" rx="6"/><rect x="350" y="300" width="80" height="220" rx="6"/><rect x="830" y="240" width="130" height="280" rx="6"/><rect x="980" y="310" width="85" height="210" rx="6"/></g>
<path d="M585 120l15 190h-30z" fill="#e9f5fb" opacity=".9"/><rect x="574" y="310" width="22" height="190" fill="#e9f5fb" opacity=".9"/>
<rect y="520" width="1200" height="280" fill="url(#road)"/><path d="M0 635h1200" stroke="#dbe6ec" stroke-width="7" stroke-dasharray="50 38" opacity=".8"/>
<g filter="url(#shadow)" transform="translate(270 350)"><rect x="220" y="55" width="420" height="240" rx="24" fill="#fff"/><rect x="220" y="55" width="420" height="24" rx="12" fill="#0c6db5"/><rect x="0" y="105" width="260" height="190" rx="34" fill="#f5f9fb"/><path d="M55 105h145l48 105H15z" fill="#9ed2ef"/><rect x="298" y="94" width="110" height="18" rx="8" fill="#e3293c"/><rect x="408" y="94" width="110" height="18" rx="8" fill="#197cc2"/><circle cx="350" cy="180" r="43" fill="#e3293c"/><path d="M350 152v56M322 180h56" stroke="#fff" stroke-width="17" stroke-linecap="round"/><text x="445" y="205" font-family="Arial" font-size="40" font-weight="700" fill="#0b2744">NEXUS</text><text x="445" y="237" font-family="Arial" font-size="18" letter-spacing="3" fill="#486174">MEDICAL TRANSIT</text><rect x="220" y="270" width="420" height="25" fill="#d7263d"/><circle cx="150" cy="300" r="58" fill="#12283a"/><circle cx="150" cy="300" r="28" fill="#9baab5"/><circle cx="535" cy="300" r="58" fill="#12283a"/><circle cx="535" cy="300" r="28" fill="#9baab5"/></g>
<g transform="translate(960 485)"><circle cx="0" cy="0" r="48" fill="#fff" opacity=".9"/><path d="M-14-25h28v50h-28zM-35-7h70v14h-70z" fill="#e3293c"/></g>
</svg>
