<svg xmlns="http://www.w3.org/2000/svg" viewBox="0 0 1200 800">
<defs><linearGradient id="sky2" x1="0" y1="0" x2="1" y2="1"><stop stop-color="#eef2ff"/><stop offset="1" stop-color="#9eb8e9"/></linearGradient><filter id="sd"><feDropShadow dx="0" dy="20" stdDeviation="18" flood-opacity=".22"/></filter></defs>
<rect width="1200" height="800" fill="url(#sky2)"/><circle cx="190" cy="130" r="65" fill="#fff" opacity=".72"/>
<g opacity=".28" fill="#4c6390"><rect x="60" y="280" width="110" height="230" rx="7"/><rect x="190" y="200" width="160" height="310" rx="7"/><rect x="885" y="230" width="160" height="280" rx="7"/></g>
<rect y="510" width="1200" height="290" fill="#334353"/><path d="M0 635h1200" stroke="#e2e8ef" stroke-width="7" stroke-dasharray="48 40"/>
<g transform="translate(210 330)" filter="url(#sd)"><rect x="0" y="0" width="760" height="290" rx="42" fill="#fff"/><rect x="30" y="38" width="165" height="105" rx="18" fill="#9bc9e6"/><rect x="215" y="38" width="145" height="105" rx="18" fill="#9bc9e6"/><rect x="380" y="38" width="145" height="105" rx="18" fill="#9bc9e6"/><rect x="545" y="38" width="145" height="105" rx="18" fill="#9bc9e6"/><rect x="700" y="0" width="60" height="290" rx="0 42 42 0" fill="#f5f9fb"/><path d="M0 210h760v48H0z" fill="#0b77bd"/><path d="M0 258h760v22H0z" fill="#d72d42"/><text x="220" y="195" font-family="Arial" font-size="42" font-weight="700" fill="#0b2744">NEXUS MEDICAL SHUTTLE</text><circle cx="165" cy="292" r="62" fill="#12283a"/><circle cx="165" cy="292" r="30" fill="#9baab5"/><circle cx="625" cy="292" r="62" fill="#12283a"/><circle cx="625" cy="292" r="30" fill="#9baab5"/></g>
<g transform="translate(970 450)"><circle cx="0" cy="0" r="55" fill="#fff" opacity=".94"/><path d="M-18-28h36v56h-36zM-38-8h76v16h-76z" fill="#0b77bd"/><circle cx="0" cy="0" r="48" fill="none" stroke="#d72d42" stroke-width="5"/></g>
</svg>
