<svg xmlns="http://www.w3.org/2000/svg" viewBox="0 0 1200 800">
<defs><linearGradient id="bg" x1="0" y1="0" x2="1" y2="1"><stop stop-color="#e9f7f4"/><stop offset="1" stop-color="#7fc9bd"/></linearGradient><filter id="sh"><feDropShadow dx="0" dy="18" stdDeviation="16" flood-opacity=".22"/></filter></defs>
<rect width="1200" height="800" fill="url(#bg)"/><rect y="510" width="1200" height="290" fill="#2d4857"/><path d="M0 630h1200" stroke="#d7e8e7" stroke-width="7" stroke-dasharray="55 42"/>
<g opacity=".35" fill="#356b6d"><rect x="70" y="210" width="170" height="300" rx="12"/><rect x="270" y="280" width="120" height="230" rx="12"/><rect x="910" y="245" width="180" height="265" rx="12"/></g>
<g transform="translate(360 280)" filter="url(#sh)"><rect x="140" y="50" width="430" height="260" rx="30" fill="#fff"/><rect x="0" y="100" width="190" height="210" rx="36" fill="#f6fafb"/><path d="M30 100h110l45 105H10z" fill="#9ed8e3"/><rect x="140" y="275" width="430" height="35" fill="#0b77bd"/><text x="235" y="175" font-family="Arial" font-size="44" font-weight="700" fill="#0b2744">NEXUS</text><text x="240" y="209" font-family="Arial" font-size="18" letter-spacing="3" fill="#4b6876">ACCESSIBLE VAN</text><circle cx="115" cy="315" r="58" fill="#132738"/><circle cx="115" cy="315" r="28" fill="#9baab5"/><circle cx="470" cy="315" r="58" fill="#132738"/><circle cx="470" cy="315" r="28" fill="#9baab5"/><rect x="568" y="145" width="26" height="175" rx="8" fill="#273e4c"/><path d="M590 305h145l-26 21H590z" fill="#d5dde1" stroke="#869aa4" stroke-width="4"/></g>
<g transform="translate(895 470)"><circle cx="0" cy="0" r="43" fill="#0b2744"/><circle cx="0" cy="0" r="25" fill="none" stroke="#fff" stroke-width="6"/><circle cx="-3" cy="-58" r="15" fill="#fff"/><path d="M-5-40l-6 47h36M-5-18h40l22 43" fill="none" stroke="#fff" stroke-width="9" stroke-linecap="round" stroke-linejoin="round"/></g>
<g transform="translate(1000 360)"><circle cx="0" cy="0" r="42" fill="#fff" opacity=".92"/><path d="M-19 1l13 13 28-32" fill="none" stroke="#1aa775" stroke-width="10" stroke-linecap="round" stroke-linejoin="round"/></g>
</svg>
